<svg width="512" height="512" xmlns="http://www.w3.org/2000/svg">

 <g>
  <title>background</title>
  <rect fill="none" id="canvas_background" height="402" width="582" y="-1" x="-1"/>
 </g>
 <g>
  <title>Layer 1</title>
  <path id="ShareThis_4_" fill="#FFFFFF" d="m215.496,242.995c0,0.923 -0.211,1.794 -0.264,2.715l96.67,48.32c8.27,-7.011 18.867,-11.384 30.564,-11.384c26.295,0 47.607,21.314 47.607,47.609c0,26.323 -21.313,47.638 -47.607,47.638c-26.322,0 -47.607,-21.314 -47.607,-47.638c0,-0.948 0.211,-1.79 0.264,-2.713l-96.67,-48.32c-8.299,6.983 -18.867,11.354 -30.561,11.354c-26.295,0 -47.611,-21.288 -47.611,-47.582c0,-26.321 21.316,-47.638 47.611,-47.638c11.693,0 22.262,4.402 30.561,11.384l96.67,-48.32c-0.053,-0.923 -0.264,-1.792 -0.264,-2.742c0,-26.268 21.285,-47.58 47.607,-47.58c26.295,0 47.607,21.313 47.607,47.58c0,26.321 -21.313,47.639 -47.607,47.639c-11.723,0 -22.295,-4.402 -30.564,-11.409l-96.67,48.348c0.053,0.92 0.264,1.792 0.264,2.739z"/>
 </g>
</svg>